HIERARCHY
ROOT Root
{
  OFFSET 0.0 0.0 0.0
  CHANNELS 6 Xposition Yposition Zposition Zrotation Yrotation Xrotation
  JOINT Hips
  {
    OFFSET 0.0 100.0 0.0
    CHANNELS 6 Xposition Yposition Zposition Zrotation Yrotation Xrotation
    JOINT Spine1
    {
      OFFSET 5.003913 -0.037094 -0.013727
      CHANNELS 3 Zrotation Yrotation Xrotation
      JOINT Spine2
      {
        OFFSET 7.125363 -1e-06 0.0
        CHANNELS 3 Zrotation Yrotation Xrotation
        JOINT Chest
        {
          OFFSET 7.594027 1e-06 0.0
          CHANNELS 3 Zrotation Yrotation Xrotation
          JOINT Neck1
          {
            OFFSET 26.313086 -0.460272 -0.181672
            CHANNELS 3 Zrotation Yrotation Xrotation
            JOINT Neck2
            {
              OFFSET 8.045911 0.0 0.0
              CHANNELS 3 Zrotation Yrotation Xrotation
              JOINT Head
              {
                OFFSET 6.432774 0.0 0.0
                CHANNELS 3 Zrotation Yrotation Xrotation
                JOINT HeadEnd
                {
                  OFFSET 16.169773 0.06451 0.00362
                  CHANNELS 3 Zrotation Yrotation Xrotation
                }
                JOINT Jaw
                {
                  OFFSET 0.108741 3.12938 0.002639
                  CHANNELS 3 Zrotation Yrotation Xrotation
                }
                JOINT LeftEye
                {
                  OFFSET 4.45173 8.166359 3.206392
                  CHANNELS 3 Zrotation Yrotation Xrotation
                }
                JOINT RightEye
                {
                  OFFSET 4.436895 8.135758 -3.222429
                  CHANNELS 3 Zrotation Yrotation Xrotation
                }
              }
            }
          }
          JOINT LeftShoulder
          {
            OFFSET 23.218927 5.195579 1.621656
            CHANNELS 3 Zrotation Yrotation Xrotation
            JOINT LeftArm
            {
              OFFSET 15.902118 2e-06 -2e-06
              CHANNELS 3 Zrotation Yrotation Xrotation
              JOINT LeftForeArm
              {
                OFFSET 28.739307 0.0 -1e-06
                CHANNELS 3 Zrotation Yrotation Xrotation
                JOINT LeftHand
                {
                  OFFSET 27.093981 -4e-06 0.0
                  CHANNELS 3 Zrotation Yrotation Xrotation
                  JOINT LeftHandThumb1
                  {
                    OFFSET 2.276781 3.380274 0.83384
                    CHANNELS 3 Zrotation Yrotation Xrotation
                    JOINT LeftHandThumb2
                    {
                      OFFSET 4.705309 -1e-06 -1e-06
                      CHANNELS 3 Zrotation Yrotation Xrotation
                      JOINT LeftHandThumb3
                      {
                        OFFSET 2.798515 0.0 3e-06
                        CHANNELS 3 Zrotation Yrotation Xrotation
                        JOINT LeftHandThumbEnd
                        {
                          OFFSET 3.180793 4e-06 -4e-06
                          CHANNELS 3 Zrotation Yrotation Xrotation
                        }
                      }
                    }
                  }
                  JOINT LeftHandIndex1
                  {
                    OFFSET 3.247786 2.352677 0.137192
                    CHANNELS 3 Zrotation Yrotation Xrotation
                    JOINT LeftHandIndex2
                    {
                      OFFSET 6.367095 1e-06 0.0
                      CHANNELS 3 Zrotation Yrotation Xrotation
                      JOINT LeftHandIndex3
                      {
                        OFFSET 3.662364 0.0 0.0
                        CHANNELS 3 Zrotation Yrotation Xrotation
                        JOINT LeftHandIndex4
                        {
                          OFFSET 2.329242 4e-06 -4e-06
                          CHANNELS 3 Zrotation Yrotation Xrotation
                          JOINT LeftHandIndexEnd
                          {
                            OFFSET 2.767823 1e-06 0.0
                            CHANNELS 3 Zrotation Yrotation Xrotation
                          }
                        }
                      }
                    }
                  }
                  JOINT LeftHandMiddle1
                  {
                    OFFSET 3.163612 0.945023 -0.406112
                    CHANNELS 3 Zrotation Yrotation Xrotation
                    JOINT LeftHandMiddle2
                    {
                      OFFSET 6.276789 3e-06 0.0
                      CHANNELS 3 Zrotation Yrotation Xrotation
                      JOINT LeftHandMiddle3
                      {
                        OFFSET 4.35652 -1e-06 4e-06
                        CHANNELS 3 Zrotation Yrotation Xrotation
                        JOINT LeftHandMiddle4
                        {
                          OFFSET 2.996877 0.0 8e-06
                          CHANNELS 3 Zrotation Yrotation Xrotation
                          JOINT LeftHandMiddleEnd
                          {
                            OFFSET 2.323256 3e-06 -4e-06
                            CHANNELS 3 Zrotation Yrotation Xrotation
                          }
                        }
                      }
                    }
                  }
                  JOINT LeftHandRing1
                  {
                    OFFSET 2.882606 -0.309162 0.107445
                    CHANNELS 3 Zrotation Yrotation Xrotation
                    JOINT LeftHandRing2
                    {
                      OFFSET 6.033198 0.0 4e-06
                      CHANNELS 3 Zrotation Yrotation Xrotation
                      JOINT LeftHandRing3
                      {
                        OFFSET 4.350578 3e-06 0.0
                        CHANNELS 3 Zrotation Yrotation Xrotation
                        JOINT LeftHandRing4
                        {
                          OFFSET 2.651321 2e-06 -7e-06
                          CHANNELS 3 Zrotation Yrotation Xrotation
                          JOINT LeftHandRingEnd
                          {
                            OFFSET 1.937663 1e-06 -4e-06
                            CHANNELS 3 Zrotation Yrotation Xrotation
                          }
                        }
                      }
                    }
                  }
                  JOINT LeftHandPinky1
                  {
                    OFFSET 2.865315 -1.525436 0.575687
                    CHANNELS 3 Zrotation Yrotation Xrotation
                    JOINT LeftHandPinky2
                    {
                      OFFSET 5.54936 1e-06 -8e-06
                      CHANNELS 3 Zrotation Yrotation Xrotation
                      JOINT LeftHandPinky3
                      {
                        OFFSET 3.070974 0.0 -4e-06
                        CHANNELS 3 Zrotation Yrotation Xrotation
                        JOINT LeftHandPinky4
                        {
                          OFFSET 1.549672 1e-06 0.0
                          CHANNELS 3 Zrotation Yrotation Xrotation
                          JOINT LeftHandPinkyEnd
                          {
                            OFFSET 1.952123 0.0 0.0
                            CHANNELS 3 Zrotation Yrotation Xrotation
                          }
                        }
                      }
                    }
                  }
                }
              }
            }
          }
          JOINT RightShoulder
          {
            OFFSET 23.161716 5.296122 -1.380114
            CHANNELS 3 Zrotation Yrotation Xrotation
            JOINT RightArm
            {
              OFFSET -16.027195 -2e-06 1.1e-05
              CHANNELS 3 Zrotation Yrotation Xrotation
              JOINT RightForeArm
              {
                OFFSET -28.736639 4e-06 2e-06
                CHANNELS 3 Zrotation Yrotation Xrotation
                JOINT RightHand
                {
                  OFFSET -27.133619 6e-06 0.0
                  CHANNELS 3 Zrotation Yrotation Xrotation
                  JOINT RightHandThumb1
                  {
                    OFFSET -2.274328 -3.351035 -0.83067
                    CHANNELS 3 Zrotation Yrotation Xrotation
                    JOINT RightHandThumb2
                    {
                      OFFSET -4.703594 -3e-06 2e-06
                      CHANNELS 3 Zrotation Yrotation Xrotation
                      JOINT RightHandThumb3
                      {
                        OFFSET -2.794935 -4e-06 -3e-06
                        CHANNELS 3 Zrotation Yrotation Xrotation
                        JOINT RightHandThumbEnd
                        {
                          OFFSET -3.183852 4e-06 1e-06
                          CHANNELS 3 Zrotation Yrotation Xrotation
                        }
                      }
                    }
                  }
                  JOINT RightHandIndex1
                  {
                    OFFSET -3.253496 -2.33755 -0.127667
                    CHANNELS 3 Zrotation Yrotation Xrotation
                    JOINT RightHandIndex2
                    {
                      OFFSET -6.344434 0.0 0.0
                      CHANNELS 3 Zrotation Yrotation Xrotation
                      JOINT RightHandIndex3
                      {
                        OFFSET -3.654871 0.0 -8e-06
                        CHANNELS 3 Zrotation Yrotation Xrotation
                        JOINT RightHandIndex4
                        {
                          OFFSET -2.327586 -1e-06 0.0
                          CHANNELS 3 Zrotation Yrotation Xrotation
                          JOINT RightHandIndexEnd
                          {
                            OFFSET -2.770001 3e-06 8e-06
                            CHANNELS 3 Zrotation Yrotation Xrotation
                          }
                        }
                      }
                    }
                  }
                  JOINT RightHandMiddle1
                  {
                    OFFSET -3.168223 -0.944764 0.411762
                    CHANNELS 3 Zrotation Yrotation Xrotation
                    JOINT RightHandMiddle2
                    {
                      OFFSET -6.266691 -1e-06 -4e-06
                      CHANNELS 3 Zrotation Yrotation Xrotation
                      JOINT RightHandMiddle3
                      {
                        OFFSET -4.348901 0.0 0.0
                        CHANNELS 3 Zrotation Yrotation Xrotation
                        JOINT RightHandMiddle4
                        {
                          OFFSET -3.00024 2e-06 -4e-06
                          CHANNELS 3 Zrotation Yrotation Xrotation
                          JOINT RightHandMiddleEnd
                          {
                            OFFSET -2.321477 -4e-06 -4e-06
                            CHANNELS 3 Zrotation Yrotation Xrotation
                          }
                        }
                      }
                    }
                  }
                  JOINT RightHandRing1
                  {
                    OFFSET -2.885654 0.293261 -0.119232
                    CHANNELS 3 Zrotation Yrotation Xrotation
                    JOINT RightHandRing2
                    {
                      OFFSET -6.032835 -1e-06 -4e-06
                      CHANNELS 3 Zrotation Yrotation Xrotation
                      JOINT RightHandRing3
                      {
                        OFFSET -4.33881 0.0 -4e-06
                        CHANNELS 3 Zrotation Yrotation Xrotation
                        JOINT RightHandRing4
                        {
                          OFFSET -2.654903 -4e-06 -4e-06
                          CHANNELS 3 Zrotation Yrotation Xrotation
                          JOINT RightHandRingEnd
                          {
                            OFFSET -1.935122 0.0 4e-06
                            CHANNELS 3 Zrotation Yrotation Xrotation
                          }
                        }
                      }
                    }
                  }
                  JOINT RightHandPinky1
                  {
                    OFFSET -2.866241 1.503904 -0.60527
                    CHANNELS 3 Zrotation Yrotation Xrotation
                    JOINT RightHandPinky2
                    {
                      OFFSET -5.553177 -2e-06 0.0
                      CHANNELS 3 Zrotation Yrotation Xrotation
                      JOINT RightHandPinky3
                      {
                        OFFSET -3.062664 -1e-06 -4e-06
                        CHANNELS 3 Zrotation Yrotation Xrotation
                        JOINT RightHandPinky4
                        {
                          OFFSET -1.546529 2e-06 4e-06
                          CHANNELS 3 Zrotation Yrotation Xrotation
                          JOINT RightHandPinkyEnd
                          {
                            OFFSET -1.952341 0.0 -4e-06
                            CHANNELS 3 Zrotation Yrotation Xrotation
                          }
                        }
                      }
                    }
                  }
                }
              }
            }
          }
        }
      }
    }
    JOINT LeftLeg
    {
      OFFSET -8.443107 2.567604 10.043214
      CHANNELS 3 Zrotation Yrotation Xrotation
      JOINT LeftShin
      {
        OFFSET 43.229198 1e-06 -1e-06
        CHANNELS 3 Zrotation Yrotation Xrotation
        JOINT LeftFoot
        {
          OFFSET 42.298611 1e-06 1e-06
          CHANNELS 3 Zrotation Yrotation Xrotation
          JOINT LeftToeBase
          {
            OFFSET 14.165858 1e-06 0.0
            CHANNELS 3 Zrotation Yrotation Xrotation
            JOINT LeftToeEnd
            {
              OFFSET 6.7141 -0.234461 0.0
              CHANNELS 3 Zrotation Yrotation Xrotation
            }
          }
        }
      }
    }
    JOINT RightLeg
    {
      OFFSET -8.303923 2.592729 -10.047278
      CHANNELS 3 Zrotation Yrotation Xrotation
      JOINT RightShin
      {
        OFFSET -43.369682 0.0 1e-06
        CHANNELS 3 Zrotation Yrotation Xrotation
        JOINT RightFoot
        {
          OFFSET -42.260784 4e-06 2e-06
          CHANNELS 3 Zrotation Yrotation Xrotation
          JOINT RightToeBase
          {
            OFFSET -14.222245 -2e-06 -1e-06
            CHANNELS 3 Zrotation Yrotation Xrotation
            JOINT RightToeEnd
            {
              OFFSET -6.660062 0.232574 -2e-06
              CHANNELS 3 Zrotation Yrotation Xrotation
            }
          }
        }
      }
    }
  }
}
MOTION
Frames: 4
Frame Time: 0.03333333333333333
0.0 0.0 0.0 0.0 -0.0 0.0 4.824463 50.766098 163.197037 91.445328 -52.780781 84.750122 13.486559 0.032889 -0.181454 -3.761033 -0.284925 -0.903221 27.657486 3.553267 -1.754785 20.344223 0.613749 2.605287 -2.450747 -0.208717 0.893996 -21.658581 2.009737 0.331865 6e-06 -0.0 0.0 -0.257215 -0.0489 -0.006072 -0.697638 0.085195 -0.105011 -0.655304 -0.18937 0.086956 -26.475758 -64.035683 33.731785 70.778061 11.697963 -53.222843 18.44746 -1.226555 -0.011649 -8.537551 58.71376 -1.790093 17.636627 -26.322725 52.411179 -19.46666 -14.395596 29.410385 -1e-06 -8.774821 -2e-06 16.814346 -18.614616 6.569993 -0.609775 -1.795653 -3.889327 -4.80709 -11.046811 -2.93785 4e-06 -20.976011 -1e-06 -5.019969 -25.033556 -4.031879 6e-06 1e-06 -1e-06 -10.634533 -5.68697 -3.565587 10.573274 -17.922951 -3.113901 2e-06 -13.821212 1e-06 -0.501777 -31.181505 -4.027016 -12.487792 -60.070538 8.343297 -13.982709 -7.150198 -2.875041 13.772726 -8.401491 -3.218241 0.347735 -34.211544 0.771652 -0.963027 -17.733366 2.621016 0.0 -0.0 1e-06 -17.346413 -20.095217 -4.20178 21.757557 -1.638374 3.866427 2e-06 -6.338823 1e-06 -1.697588 -22.591742 -6.194007 -1e-06 -4e-06 -3e-06 158.359589 -73.7034 29.493092 96.805672 4.012525 -21.555244 7.983973 -0.913863 -0.008094 57.682983 78.870201 64.107864 22.18211 -20.3759 49.933323 -16.701811 -16.74353 28.47653 -4e-06 -12.6906 -0.0 16.562521 -17.296867 3.072809 -0.105919 -1.513857 -4.275882 -5.03904 -5.612872 -2.953557 4e-06 -11.020523 -2e-06 -6.111297 -15.895332 -3.840469 -1e-06 -1e-06 -1e-06 -10.283369 -5.680288 -4.341839 11.028292 -11.302406 -2.372633 -1.384268 -14.238581 -6.32012 -0.625439 -26.924194 -3.827601 -4.682455 -50.480591 -3.28627 -13.708524 -7.363475 -3.720939 18.14115 -14.052739 -3.242675 6e-06 -18.78727 -2e-06 -0.429712 -8.456045 2.555504 0.0 -0.0 -0.0 -15.923532 -20.094484 -5.473584 30.419207 -7.190827 1.735922 2e-06 -8.162925 -0.0 -1.861903 -22.861473 -6.167941 -0.0 -4e-06 -1e-06 131.631531 5.826493 -3.256345 104.781113 2.474766 0.026976 -84.46759 -0.647079 8.59312 -42.536854 1.58694 0.737955 -0.999997 1e-06 -0.0 -59.101158 -11.273685 15.926787 107.592674 -2.25816 0.142086 -48.925293 6.440127 0.049465 -18.892918 0.564886 2.078898 -1.000002 0.0 1e-06 
0.0 0.0 0.0 0.0 -0.0 0.0 5.606904 50.604755 164.646408 91.530281 -52.054199 85.376587 13.758922 0.337402 -0.272929 -3.660058 -0.199002 -1.235989 28.075621 4.083662 -1.906966 20.379599 0.290732 2.485058 -2.448209 -0.13413 0.839747 -21.573978 2.088259 0.389689 6e-06 -0.0 0.0 -0.25993 -0.079483 -0.001007 -0.680039 0.061413 -0.092413 -0.641724 -0.226819 0.08642 -25.784121 -63.729755 32.882648 71.611481 10.820853 -53.2906 18.055115 -1.15038 -0.027568 -10.792896 58.72226 -4.609825 17.636629 -26.322744 52.411224 -19.466665 -14.3956 29.410402 -2e-06 -8.774822 -1e-06 16.780373 -18.633291 6.567045 -0.609777 -1.795653 -3.889329 -4.807088 -11.046813 -2.937851 5e-06 -20.976019 -1e-06 -5.019969 -25.033562 -4.031881 7e-06 1e-06 -3e-06 -10.634537 -5.686971 -3.56559 10.573278 -17.922953 -3.113903 3e-06 -13.821209 1e-06 -0.501775 -31.181505 -4.027017 -12.472825 -60.131866 8.25283 -13.982718 -7.150198 -2.875045 13.772735 -8.401493 -3.218243 0.347735 -34.211555 0.771655 -0.963028 -17.73337 2.621021 -0.0 -0.0 1e-06 -17.346422 -20.095219 -4.201785 21.757566 -1.638377 3.866427 2e-06 -6.338825 1e-06 -1.697588 -22.591745 -6.194009 -1e-06 -4e-06 -3e-06 157.772797 -73.923401 30.44075 96.495285 3.309352 -20.106989 8.361531 -1.069104 -0.003758 60.402565 80.01133 67.307777 22.182116 -20.3759 49.933327 -16.701815 -16.74353 28.476536 -4e-06 -12.6906 0.0 16.60734 -17.359779 3.02109 -0.105919 -1.513857 -4.275882 -5.039041 -5.612871 -2.953557 4e-06 -11.020523 -2e-06 -6.111296 -15.89533 -3.840472 0.0 -1e-06 -0.0 -10.283371 -5.680288 -4.34184 11.028294 -11.302406 -2.372633 -1.384269 -14.238579 -6.320122 -0.625437 -26.924194 -3.827603 -4.704119 -50.530468 -3.330724 -13.708525 -7.363476 -3.72094 18.141151 -14.052739 -3.242676 6e-06 -18.787271 -1e-06 -0.429712 -8.456043 2.555504 -0.0 -1e-06 0.0 -15.923536 -20.094484 -5.473585 30.41921 -7.190825 1.735925 3e-06 -8.162922 -0.0 -1.861903 -22.861469 -6.167941 0.0 -4e-06 -1e-06 134.185394 7.776805 -2.314186 102.469513 2.891552 -0.065506 -83.085358 -1.357753 9.364024 -42.472328 1.582651 0.730847 -0.999997 0.0 -0.0 -63.939507 -11.026877 17.602043 112.72818 -1.847175 0.086751 -49.481258 7.447217 0.411816 -19.019949 0.553925 2.095721 -1.000002 0.0 0.0 
0.0 0.0 0.0 0.0 -0.0 0.0 6.306756 50.347282 166.045288 91.556908 -51.231628 86.129311 13.981638 0.65682 -0.383129 -3.548301 -0.088642 -1.55205 28.531199 4.529068 -2.041854 20.427649 0.151646 2.428951 -2.435566 -0.073362 0.784805 -21.493452 2.057702 0.411286 6e-06 0.0 -0.0 -0.257545 -0.098645 0.004159 -0.670792 0.049897 -0.081668 -0.634104 -0.253093 0.087178 -25.04888 -63.471794 32.033127 72.491608 9.955696 -53.190193 17.684591 -1.032278 -0.040714 -12.928343 58.615948 -7.354546 17.636629 -26.322725 52.411186 -19.46666 -14.395596 29.410385 -2e-06 -8.774818 -2e-06 16.704346 -18.681744 6.552756 -0.609776 -1.795653 -3.889328 -4.80709 -11.046811 -2.93785 5e-06 -20.976011 0.0 -5.019969 -25.033552 -4.031882 7e-06 -0.0 -3e-06 -10.634535 -5.686969 -3.565587 10.573276 -17.922951 -3.113903 3e-06 -13.821208 1e-06 -0.501775 -31.181505 -4.027015 -12.491702 -60.083958 8.182978 -13.982714 -7.150198 -2.875042 13.772727 -8.401491 -3.218242 0.347737 -34.211544 0.771653 -0.963027 -17.733366 2.621017 -0.0 -1e-06 1e-06 -17.346416 -20.095215 -4.201783 21.757557 -1.638376 3.866427 1e-06 -6.338823 1e-06 -1.69759 -22.591743 -6.194005 -1e-06 -5e-06 -4e-06 157.275406 -74.256424 31.324808 96.144714 2.616212 -18.864723 8.536795 -1.151409 0.007101 63.257969 80.898796 70.359627 22.182106 -20.375896 49.933323 -16.701811 -16.74353 28.476532 -3e-06 -12.690598 1e-06 16.694401 -17.378555 2.935241 -0.105919 -1.513856 -4.275882 -5.03904 -5.612869 -2.953557 5e-06 -11.02052 -2e-06 -6.111297 -15.895332 -3.840471 0.0 -0.0 0.0 -10.283367 -5.680288 -4.341838 11.028292 -11.302402 -2.372634 -1.384268 -14.238577 -6.32012 -0.625438 -26.924185 -3.8276 -4.698478 -50.528996 -3.383039 -13.708522 -7.363476 -3.720939 18.14115 -14.052738 -3.242676 6e-06 -18.787266 -2e-06 -0.429712 -8.456043 2.555503 -0.0 0.0 0.0 -15.923532 -20.094479 -5.473584 30.419207 -7.190825 1.735922 3e-06 -8.16292 -0.0 -1.861903 -22.861464 -6.167939 -1e-06 -4e-06 -0.0 136.856094 9.513606 -1.246642 100.242569 3.284202 -0.181558 -81.52491 -1.803132 10.056176 -42.234249 1.587798 0.736696 -0.999999 -1e-06 0.0 -68.571541 -10.572531 18.645113 117.733887 -1.44315 0.06505 -49.84301 8.570285 0.865062 -19.102549 0.558347 2.086036 -1.000002 -0.0 0.0 
0.0 0.0 0.0 0.0 -0.0 0.0 6.907312 50.010395 167.38559 91.54274 -50.38673 87.026016 14.149443 0.968325 -0.520791 -3.431601 0.034367 -1.842341 28.95812 4.919954 -2.178144 20.476683 0.227722 2.451155 -2.407413 -0.048736 0.74327 -21.381863 1.935006 0.388567 6e-06 0.0 0.0 -0.253728 -0.107557 0.008684 -0.665746 0.04639 -0.070703 -0.628198 -0.266971 0.085667 -24.350163 -63.249424 31.202938 73.491516 9.061233 -53.000984 17.372908 -0.914 -0.050387 -14.958084 58.523495 -10.04615 17.636629 -26.322741 52.411213 -19.466665 -14.395597 29.410395 0.0 -8.774822 -1e-06 16.650099 -18.726749 6.488723 -0.609777 -1.795653 -3.889328 -4.80709 -11.046811 -2.93785 4e-06 -20.976019 1e-06 -5.019973 -25.033562 -4.031878 6e-06 2e-06 -2e-06 -10.634536 -5.686971 -3.565588 10.573275 -17.922955 -3.113901 3e-06 -13.821211 2e-06 -0.501778 -31.181507 -4.027015 -12.499972 -59.96312 8.09129 -13.982716 -7.150198 -2.875043 13.772731 -8.401493 -3.218241 0.347733 -34.211555 0.771657 -0.96303 -17.733374 2.621021 0.0 -1e-06 2e-06 -17.346422 -20.095221 -4.201783 21.757559 -1.638375 3.866429 2e-06 -6.338826 1e-06 -1.69759 -22.591743 -6.194008 -1e-06 -4e-06 -2e-06 156.531113 -74.693504 32.473343 95.743973 1.877822 -17.895914 8.698688 -1.201802 0.01316 66.902092 81.581512 73.984337 22.182119 -20.375895 49.933327 -16.701817 -16.74353 28.476536 -2e-06 -12.690603 -1e-06 16.775738 -17.381191 2.850394 -0.105919 -1.513857 -4.275882 -5.039042 -5.612873 -2.953557 5e-06 -11.020525 -2e-06 -6.111298 -15.895334 -3.840472 -1e-06 -2e-06 -0.0 -10.283373 -5.680289 -4.34184 11.028297 -11.302406 -2.372633 -1.384269 -14.238581 -6.320124 -0.625437 -26.924192 -3.827603 -4.706157 -50.490665 -3.408228 -13.708527 -7.363477 -3.720941 18.141151 -14.052742 -3.242675 6e-06 -18.78727 -2e-06 -0.429712 -8.456044 2.555504 -0.0 -1e-06 -0.0 -15.923539 -20.094486 -5.473586 30.419222 -7.190827 1.735926 2e-06 -8.162925 -1e-06 -1.861902 -22.861473 -6.167945 -0.0 -3e-06 -1e-06 139.557495 11.078965 -0.012823 98.155869 3.649981 -0.313042 -80.11657 -2.098231 10.596467 -41.859375 1.597977 0.745892 -1.000001 0.0 0.0 -72.859947 -10.075199 19.011063 122.478775 -1.053303 0.069443 -50.035511 9.924506 1.364472 -19.162176 0.576825 2.05293 -1.000003 0.0 -0.0 
